# xmcd
#
# Track frame offsets:
#	150
#	15528
#	28323
#	42808
#	54653
#	68648
#	81543
#	94358
#	109320
#	123195
#	136968
#	152633
#
# Disc length: 2188 seconds
#
# Revision: 8
# Processed by: cddbd v1.5.2PL0 Copyright (c) Steve Scherf et al.
# Submitted via: EasyCDDAExtractor 15.3.0.1
#
DISCID=a1088a0c
DTITLE=Yolandita Monge - Antologia Musical Vol. 1 - CD 1
DYEAR=1993
DGENRE=Latin
TTITLE0=Cierra Los Ojos Y Juntos Recordemos
TTITLE1=Es La Lluvia Que Cayendo Va
TTITLE2=Alguien A Quien Se Amo De Mas
TTITLE3=Dejame Que Pague Yo
TTITLE4=Una Sonrisa Una Lagrima
TTITLE5=Y Todavia Te Quiero
TTITLE6=Soy Ante Todo Mujer
TTITLE7=Fui Solo Un Capricho
TTITLE8=Paginas Del Alma
TTITLE9=Soy Un Poco De Ti
TTITLE10=Adios Amor Adios
TTITLE11=Cuando Estemos Lejos
EXTD=
EXTT0=
EXTT1=
EXTT2=
EXTT3=
EXTT4=
EXTT5=
EXTT6=
EXTT7=
EXTT8=
EXTT9=
EXTT10=
EXTT11=
PLAYORDER=
